<?xml version="1.0" encoding="utf-8"?>
<!-- Generator: Adobe Illustrator 18.1.1, SVG Export Plug-In . SVG Version: 6.00 Build 0)  -->
<svg version="1.1" id="Layer_1" xmlns="http://www.w3.org/2000/svg" xmlns:xlink="http://www.w3.org/1999/xlink" x="0px" y="0px"
	 viewBox="0 0 283.5 340.2" enable-background="new 0 0 283.5 340.2" xml:space="preserve">
<path d="M201.6,200.2c-31.9,0-57.9-26.2-57.9-58.4V83.4h22.1v58.4c0,19.9,16.1,36.1,35.8,36.1c19.7,0,35.8-16.2,35.8-36.1
	c0-19.9-16.1-36.1-35.8-36.1c-14.7,0-27.4,9-32.9,21.9V93.8c9.3-6.5,20.7-10.4,32.9-10.4c31.9,0,57.9,26.2,57.9,58.4
	C259.5,174,233.5,200.2,201.6,200.2 M139.6,200.2h-22.1v-58.4c0-19.9-16.1-36.1-35.8-36.1c-19.7,0-35.8,16.2-35.8,36.1
	c0,19.9,16.1,36.1,35.8,36.1c14.7,0,27.4-9,32.9-21.9v33.8c-9.4,6.5-20.7,10.4-32.9,10.4c-31.9,0-57.9-26.2-57.9-58.4
	c0-32.2,26-58.4,57.9-58.4c31.9,0,57.9,26.2,57.9,58.4V200.2z M41.5,43.7c-57.4,59.7-51.9,142.5-4,206.9
	c27.8,37.4,100.1,89.5,100.1,89.5s5.3-29,27.9-52.8c22.6-23.8,47.8-25.8,72.1-47.5c60.3-54,59.3-145.3,7.9-198.7
	C194.1-12.3,98.9-16,41.5,43.7"/>
</svg>
