<?xml version="1.0" encoding="UTF-8"?><svg xmlns="http://www.w3.org/2000/svg" viewBox="0 0 74.57 74.57"><g id="a"/><g id="b"><g id="c"><path d="M37.28,74.57C16.73,74.57,0,57.84,0,37.28S16.73,0,37.28,0s37.28,16.73,37.28,37.28-16.73,37.29-37.28,37.29Zm0-72.57C17.83,2,2,17.83,2,37.28s15.83,35.29,35.28,35.29,35.28-15.83,35.28-35.29S56.74,2,37.28,2Z"/><g id="d"><g id="e"><g><path d="M48.29,62.01c-.12-.36-.35-.09-.48-.28,.07-.22,.25-.1,.35-.28,.06-.18-.09-.2-.11-.33,0-.23,.22-.16,.23-.44,.01-.31,.2-.68-.01-.9-.28-.3-.54-.77-.95-.59-.16,.07-.24,.25-.27,.51-.05,.41-.12,.83-.06,1.25,.03,.18,0,.32-.08,.43-.07,0-.12-.03-.14-.13-.11-.73-.04-1.46,.16-2.11,.13-.41,.42-.5,.7-.37,.26,.12,.51,.27,.68,.59,.05-.05,.09-.06,.1-.1,.06-.29-.02-.75,.23-.84,.3-.11,.62-.18,.9,.13,.32,.36,.52,.89,.79,1.39,.38,.6,.6,1.28,.62,2.09,0,.18,.06,.43-.1,.56-.18,.15-.24-.05-.29-.25-.05-.18-.17-.15-.27-.21,.05-.06-.03-.02,0-.04,.41-.29,.34-.8,.17-1.21-.26-.64-.56-1.26-.91-1.8-.24-.36-.53-.35-.84-.22-.07,.37-.13,.74,0,1.09,.25,.63,.37,1.27,.14,2.04"/><path d="M41.99,59.32c-.15,.5-.44,.88-.25,1.52,.42,0,.85,.14,1.27,.39,.22,.13,.49-.24,.76-.24,.13,0,.24-.06,.28,.27-.52,.52-1.06,.64-1.62,.13-.2-.18-.39-.16-.57-.13-.19,.23,.08,.67-.22,.82-.24-.21-.22-.64-.2-.96,.03-.34-.03-.65,0-.95,.04-.63,.28-1.18,.59-1.55,.25-.29,.41-.62,.55-1.03,.3-.84,.68-1.06,1.27-.81,.14,.06,.24,.14,.32,.32,.32,.72,.64,1.4,.6,2.39-.03,.68,.16,1.37,.15,2.08,0,.26,.14,.44,.22,.66-.36,.14-.37,.11-.47-1.05-.22,.02-.33-.03-.5-.26,.12-.2,.36-.1,.43-.51-.12-.32-.13-.71-.09-1.16,.06-.76-.23-1.4-.56-1.91-.24-.37-.93-.23-1.08,.26-.21,.68-.57,1.12-.87,1.72h0Z"/><path d="M32.51,60.29c.32,.18,.6,.34,.88,.5v.14c-.35,0-.63,.43-1.04,.2-.41-.24-.86-.34-1.31-.15-.13,.06-.22-.06-.33-.11-.29,.49,.16,1.07-.16,1.64-.18-.51-.27-1.01-.2-1.52,.11-.83,0-1.62-.12-2.42-.06-.41-.05-.74,.3-.86,.11,.91,.03,1.82,.08,2.72,.63-.27,1.24-.39,1.89-.15h0Z"/><path d="M35.69,60.1c0-.37,.02-.67,.15-1.1,.18,.72-.03,1.38,.13,2,.1,.14,.25-.25,.38,0,.09,.19-.08,.33-.04,.57,.22-.02,.44-.04,.62-.31,.28-.4,1.17-.27,1.42,.19,.02,.03,0,.09,.01,.13-.63,.69-1.48-.02-2.08,.76,0,.35,.22,.49,.2,.88-.25-.31-.44-.65-.64-.95-.15-.23-.3-.59-.18-1.06,.08-.3,.02-.69,.03-1.11h0Z"/><path d="M25.12,55.57c.5,.72,.61,1.72,.84,2.62,.22,.86,.39,1.75,.78,2.63,.33-1.55,.31-3.12,.78-4.47-.08,1.69-.41,3.28-.62,4.86-.27,.07-.33-.16-.41-.36-.45-1.17-.69-2.48-.97-3.76-.06-.3-.05-.3-.3-.64-.1,.81-.09,1.63-.36,2.36-.16-.22-.08-.45-.04-.62,.18-.74,.22-1.5,.17-2.28,0-.13-.02-.29,.13-.34h0Z"/><path d="M39.79,61.81c0,.32,.13,.61-.05,.84-.14,.05-.19-.08-.22-.25-.09-.59-.32-1.14,0-1.79,.18-.36,.06-.95,.09-1.43,.02-.41,.01-.41,.35-.54-.22,1.03-.15,2.08-.17,3.18h0Z"/><path d="M40.34,57.09c.17,.37,.32,.69,.47,1.02l-.1,.13c-.58-.47-.89-1.46-1.44-2.02,.08-.39,.34-.27,.45-.62,.23,.55,.41,.99,.62,1.48h0Z"/><path d="M24,58.5c.18,.53,.35,1.02,.52,1.52,.25-.23-.02-.71,.18-.92,.05-.04,.08-.02,.08,.03,0,.42,.16,1.01-.17,1.18-.35,.19-.37-.48-.49-.81-.26-.72-.52-1.45-.52-2.35,.12,.43,.25,.87,.39,1.35Z"/><path d="M28.4,61.46c-.11-1.04-.26-2.03-.06-3.08,.07,.07,.1,.1,.1,.12-.06,.91,.05,1.8,.08,2.7,0,.13,.04,.29-.12,.27Z"/><path d="M35.99,58.72c-.15-.46-.09-.96-.14-1.6,.35,.49,.38,.96,.14,1.6Z"/></g></g></g><g><path d="M17.58,29.97v1.99h-5.82c-1.03,0-1.48,.56-1.48,1.35,0,.69,.35,1.35,1.68,1.35h2.66c3.1,0,3.82,1.72,3.82,3.35,0,1.92-1.03,3.33-3.62,3.33h-6.33v-1.99h6.4c1.08,0,1.56-.59,1.56-1.41,0-.74-.39-1.41-1.78-1.41h-2.64c-3.03,0-3.74-1.7-3.74-3.28,0-1.89,1.01-3.27,3.53-3.27h5.76Z"/><path d="M26.23,32.45c2.36,0,3.84,1.45,3.84,4.44s-1.48,4.44-3.84,4.44h-3.94v3.57h-1.78v-8.65c0-2.56,1.13-3.8,3.27-3.8h2.46Zm-3.94,7.15h3.75c1.55,0,2.22-.79,2.22-2.71s-.67-2.73-2.22-2.73h-1.75c-1.45,0-2,.64-2,2.17v3.27Z"/><path d="M37.9,32.45c2.22,0,3.1,1.25,3.1,2.93v4.17c0,1.28-.34,1.78-1.83,1.78h-4.16c-2.1,0-2.98-1.03-2.98-2.71s.81-2.56,3-2.56h4.22v-.67c0-.69-.39-1.23-1.36-1.23h-5.32v-1.72h5.34Zm1.35,6.7v-1.67h-4.19c-.94,0-1.28,.39-1.28,1.04s.35,1.08,1.25,1.08h3.74c.35,0,.49-.13,.49-.45Z"/><path d="M51.54,32.45v1.72h-4.41c-1.55,0-2.22,.81-2.22,2.73s.67,2.71,2.22,2.71h4.41v1.73h-4.58c-2.37,0-3.85-1.45-3.85-4.44s1.48-4.44,3.85-4.44h4.58Z"/><path d="M55.44,28.59v12.74h-1.78v-12.74h1.78Z"/><path d="M63.79,32.45c2.1,0,3,1.01,3,2.73s-.82,2.56-3.01,2.56h-4.22v.64c0,.71,.39,1.23,1.36,1.23h5.44v1.73h-5.44c-2.22,0-3.1-1.25-3.1-2.93v-3.03c0-1.68,.88-2.93,3.1-2.93h2.88Zm-4.24,3.89h4.17c.96,0,1.31-.4,1.31-1.06s-.39-1.11-1.26-1.11h-2.86c-.98,0-1.36,.54-1.36,1.23v.94Z"/></g></g></g></svg>