<?xml version="1.0" encoding="UTF-8"?>
<svg id="Layer_1" xmlns="http://www.w3.org/2000/svg" version="1.1" viewBox="0 0 1660.2 430.1">
  <!-- Generator: Adobe Illustrator 29.1.0, SVG Export Plug-In . SVG Version: 2.1.0 Build 142)  -->
  <defs>
    <style>
      .st0 {
        fill: #333;
      }
    </style>
  </defs>
  <g>
    <path class="st0" d="M533.7,120.6h72.6c19.8,0,33.9,5.9,42.3,17.6,4.9,6.9,7.4,14.9,7.4,24s-3,19.3-9,26.1c-3.1,3.6-7.6,6.9-13.5,9.8,8.6,3.3,15.1,7,19.3,11.1,7.5,7.3,11.3,17.4,11.3,30.3s-3.4,20.6-10.2,29.4c-10.2,13.1-26.4,19.7-48.7,19.7h-71.5V120.6ZM597.8,191.6c9.7,0,17.3-1.3,22.7-4,8.5-4.2,12.7-11.7,12.7-22.6s-4.5-18.4-13.5-22.2c-5.1-2.1-12.6-3.2-22.7-3.2h-41v52h41.8ZM605.5,269.2c14.1,0,24.1-4,30.1-12.1,3.8-5.1,5.7-11.3,5.7-18.5,0-12.2-5.5-20.5-16.5-24.9-5.9-2.4-13.6-3.5-23.2-3.5h-45.6v59.1h49.5Z"/>
    <path class="st0" d="M753.4,214.5c4.7-.6,7.9-2.6,9.5-5.9.9-1.8,1.4-4.5,1.4-7.9,0-7-2.5-12.2-7.5-15.3-5-3.2-12.1-4.8-21.4-4.8s-18.3,2.9-22.8,8.7c-2.5,3.2-4.1,8-4.9,14.4h-19.2c.4-15.1,5.3-25.7,14.7-31.6s20.3-8.9,32.7-8.9,26.1,2.7,35.1,8.2c8.9,5.5,13.4,14,13.4,25.6v70.6c0,2.1.4,3.9,1.3,5.1.9,1.3,2.7,1.9,5.5,1.9s1.9,0,3.1-.2c1.1-.1,2.4-.3,3.7-.5v15.2c-3.2.9-5.6,1.5-7.3,1.7-1.7.2-4,.3-6.9.3-7.1,0-12.2-2.5-15.4-7.5-1.7-2.7-2.9-6.4-3.5-11.3-4.2,5.5-10.2,10.3-18.1,14.3-7.9,4-16.5,6.1-26,6.1s-20.6-3.4-27.9-10.3c-7.2-6.9-10.8-15.5-10.8-25.9s3.5-20.1,10.6-26.4c7.1-6.2,16.4-10.1,27.9-11.5l32.8-4.1ZM710.1,270.1c4.3,3.4,9.5,5.1,15.4,5.1s14.3-1.7,21-5c11.4-5.6,17.2-14.7,17.2-27.3v-16.6c-2.5,1.6-5.7,2.9-9.7,4-4,1.1-7.8,1.8-11.6,2.3l-12.4,1.6c-7.5,1-13.1,2.6-16.8,4.7-6.4,3.6-9.6,9.3-9.6,17.1s2.2,10.6,6.5,14Z"/>
    <path class="st0" d="M822.2,131.9h20.8v34.2h19.6v16.8h-19.6v79.9c0,4.3,1.4,7.1,4.3,8.6,1.6.8,4.3,1.3,8,1.3s2.1,0,3.2,0c1.1,0,2.5-.2,4-.4v16.4c-2.4.7-4.8,1.2-7.4,1.5-2.6.3-5.3.5-8.3.5-9.6,0-16.1-2.5-19.6-7.4-3.4-4.9-5.1-11.3-5.1-19.2v-81.1h-16.6v-16.8h16.6v-34.2Z"/>
    <path class="st0" d="M877.7,212.8h57.4v21.2h-57.4v-21.2Z"/>
    <path class="st0" d="M966,120.6h116.5v20.6h-93.8v51h82.5v20h-82.5v76.4h-22.8V120.6Z"/>
    <path class="st0" d="M1104.2,120.6h20.9v23.3h-20.9v-23.3ZM1104.2,166.7h20.9v121.9h-20.9v-121.9Z"/>
    <path class="st0" d="M1156.8,120.6h20.6v168h-20.6V120.6Z"/>
    <path class="st0" d="M1284,169.5c8.1,4.1,14.3,9.4,18.5,15.8,4.1,6.2,6.8,13.4,8.2,21.6,1.2,5.6,1.8,14.6,1.8,27h-89.1c.4,12.5,3.3,22.5,8.7,30,5.4,7.5,13.9,11.3,25.3,11.3s19.2-3.6,25.5-10.7c3.6-4.1,6.1-8.9,7.6-14.4h20.2c-.5,4.5-2.3,9.5-5.3,15-3,5.5-6.4,10-10.1,13.6-6.2,6.1-13.9,10.2-23,12.4-4.9,1.2-10.5,1.8-16.7,1.8-15.2,0-28-5.5-38.5-16.6-10.5-11.1-15.8-26.6-15.8-46.6s5.3-35.6,15.9-47.9c10.6-12.3,24.5-18.4,41.6-18.4s17,2,25.1,6.1ZM1291.3,217.6c-.8-8.9-2.8-16-5.8-21.4-5.6-9.9-14.9-14.9-28-14.9s-17.2,3.4-23.6,10.2c-6.4,6.8-9.7,15.5-10.1,26h67.5Z"/>
    <path class="st0" d="M1350.8,250.2c.6,6.9,2.4,12.1,5.3,15.8,5.3,6.6,14.5,10,27.6,10s14.6-1.7,20.5-5c5.9-3.3,8.9-8.4,8.9-15.4s-2.4-9.3-7.1-12c-3-1.7-9-3.6-17.9-5.8l-16.6-4.1c-10.6-2.6-18.4-5.5-23.5-8.7-9-5.6-13.5-13.3-13.5-23.1s4.2-21,12.7-28.1c8.5-7.2,19.8-10.8,34.1-10.8s32.2,5.4,40.5,16.2c5.2,6.9,7.7,14.3,7.5,22.2h-19.4c-.4-4.6-2.1-8.8-5-12.6-4.8-5.4-13.2-8.1-25.2-8.1s-14,1.5-18.1,4.4c-4.1,3-6.1,6.9-6.1,11.7s2.7,9.6,8.1,12.8c3.1,1.9,7.7,3.6,13.8,5l13.9,3.3c15.1,3.6,25.2,7.1,30.3,10.4,8,5.3,12,13.5,12,24.8s-4.2,20.3-12.6,28.3c-8.4,7.9-21.1,11.9-38.3,11.9s-31.5-4.1-39.2-12.4-11.8-18.5-12.3-30.7h19.8Z"/>
  </g>
  <path class="st0" d="M225.7,10.6c59.5,1.6,108.9,21.6,148.4,59.8,39.4,38.2,59.8,86.1,61.2,143.7-1.4,57.6-21.8,105.5-61.2,143.7-39.4,38.2-88.9,58-148.4,59.3-25.1,0-48.8-4-71.2-12.1-22.4-8-42.7-19.2-61-33.4l-77.4,45.4,39.3-84.7c-12.3-16.6-21.9-35-28.9-55-7-20.1-10.4-41.1-10.4-63.2,1.4-57.6,21.8-105.5,61.2-143.7C116.7,32.1,166.2,12.2,225.7,10.6ZM222.8,290.5v-76.5c-.5-21.8-8.3-39.9-23.1-54.2-14.9-14.3-33.5-21.8-55.9-22.3-22.1.5-40.6,8-55.5,22.3-14.9,14.3-22.6,32.4-23.1,54.2.5,21.6,8.2,39.6,23.1,54,14.9,14.5,33.4,22,55.5,22.5,16.9-.3,31.9-4.9,45-13.9v-44.2c-3.8,8.7-9.7,15.7-17.6,20.9-7.9,5.2-17.1,7.8-27.4,7.8-13.6-.3-25-4.8-34.2-13.7-9.1-8.9-14-20-14.5-33.4.5-13.4,5.4-24.6,14.5-33.6,9.1-9,20.5-13.6,34.2-13.9,13.9.3,25.4,4.9,34.6,13.9,9.1,9,14,20.2,14.5,33.6v76.5h29.9ZM307.5,290.5c22.1-.5,40.6-8,55.5-22.5,14.9-14.5,22.6-32.5,23.1-54-.5-21.8-8.3-39.9-23.1-54.2-14.9-14.3-33.4-21.8-55.5-22.3-16.9.3-31.9,4.8-45,13.5v44.2c3.8-8.5,9.7-15.3,17.6-20.5,7.9-5.2,17-7.9,27.4-8.2,13.6.3,25.1,4.9,34.4,13.9,9.3,9,14.1,20.2,14.3,33.6-.3,13.4-5.1,24.5-14.3,33.4-9.3,8.9-20.7,13.4-34.4,13.7-13.9-.3-25.4-4.8-34.6-13.7-9.1-8.9-14-20-14.5-33.4v-76.5h-29.9v76.5c.5,21.6,8.2,39.6,23.1,54,14.9,14.5,33.5,22,55.9,22.5Z"/>
</svg>